<svg xmlns="http://www.w3.org/2000/svg" viewBox="0 0 400 400" fill="none" filter=""><path d="M133.76 40H266.24L360 133.76V266.24L266.24 360H133.76L40 266.24V133.76L133.76 40Z" fill="#FF89C7" stroke="#FF89C7" stroke-width="9.14286" stroke-linejoin="bevel"></path><g clip-path="url(#clip0_21069_38893)"><path d="M210.495 112.5H189.172V163.699H210.495V112.5Z" fill="#AD005B"></path><path d="M210.495 236.279H189.172V287.479H210.495V236.279Z" fill="#AD005B"></path><path d="M163.699 189.258H112.5V210.581H163.699V189.258Z" fill="#AD005B"></path><path d="M287.503 189.258H236.304V210.581H287.503V189.258Z" fill="#AD005B"></path><path d="M145.314 130.479L130.237 145.557L166.44 181.76L181.518 166.683L145.314 130.479Z" fill="#AD005B"></path><path d="M232.863 218.028L217.786 233.105L253.989 269.309L269.067 254.231L232.863 218.028Z" fill="#AD005B"></path><path d="M254.16 130.642L217.957 166.846L233.034 181.923L269.238 145.72L254.16 130.642Z" fill="#AD005B"></path><path d="M166.623 218.191L130.42 254.395L145.497 269.472L181.701 233.269L166.623 218.191Z" fill="#AD005B"></path></g><defs><clipPath id="clip0_21069_38893"><rect width="175" height="175" fill="white" transform="translate(112.5 112.5)"></rect></clipPath></defs></svg>